<svg width="45" height="45" viewBox="0 0 45 45" fill="none" xmlns="http://www.w3.org/2000/svg">
<g clip-path="url(#clip0)">
<path d="M33.032 19.817L28.3 24.44C28.2325 24.5058 28.182 24.5869 28.1528 24.6764C28.1235 24.7659 28.1164 24.8612 28.132 24.954L29.25 31.482C29.2685 31.589 29.2568 31.6991 29.2161 31.7998C29.1755 31.9005 29.1075 31.9879 29.0198 32.052C28.9322 32.1162 28.8284 32.1546 28.7201 32.1629C28.6118 32.1712 28.5034 32.1491 28.407 32.099L22.557 29.014C22.4735 28.9703 22.3807 28.9475 22.2865 28.9475C22.1922 28.9475 22.0994 28.9703 22.016 29.014L16.166 32.099C16.0696 32.1491 15.9611 32.1712 15.8528 32.1629C15.7445 32.1546 15.6407 32.1162 15.5531 32.052C15.4654 31.9879 15.3974 31.9005 15.3568 31.7998C15.3161 31.6991 15.3044 31.589 15.323 31.482L16.441 24.954C16.4566 24.8612 16.4494 24.7659 16.4202 24.6764C16.3909 24.5869 16.3404 24.5058 16.273 24.44L11.542 19.818C11.4642 19.7422 11.4092 19.6461 11.3831 19.5406C11.3571 19.4351 11.361 19.3245 11.3945 19.2211C11.428 19.1178 11.4897 19.0258 11.5726 18.9556C11.6556 18.8855 11.7565 18.8399 11.864 18.824L18.402 17.871C18.4956 17.8577 18.5846 17.8216 18.6611 17.766C18.7376 17.7104 18.7993 17.637 18.841 17.552L21.766 11.614C21.8145 11.5174 21.8889 11.4362 21.9809 11.3795C22.0729 11.3227 22.1789 11.2927 22.287 11.2927C22.3951 11.2927 22.501 11.3227 22.593 11.3795C22.685 11.4362 22.7595 11.5174 22.808 11.614L25.732 17.552C25.7738 17.637 25.8358 17.7104 25.9124 17.766C25.9891 17.8216 26.0782 17.8577 26.172 17.871L32.71 18.824C32.8174 18.8399 32.9183 18.8855 33.0013 18.9556C33.0842 19.0258 33.1459 19.1178 33.1794 19.2211C33.2129 19.3245 33.2168 19.4351 33.1908 19.5406C33.1647 19.6461 33.1097 19.7422 33.032 19.818V19.817ZM43.969 20.093V20.079C42.313 17.134 41.919 16.877 41.919 16.136V13.338C41.919 9.83103 38.391 9.00803 37.163 8.03803C36.505 7.63703 36.56 7.31103 35.044 4.84603C33.254 1.84903 29.85 2.89103 28.458 2.68603C27.694 2.68603 27.447 2.27403 24.495 0.618026C20.71 -1.54897 18.083 2.68603 16.115 2.68603H13.315C9.81696 2.68603 8.96996 6.21703 8.02696 7.42403C7.67396 8.04103 7.24896 8.06903 4.81496 9.56003C1.75296 11.398 2.84696 14.86 2.65496 16.136C2.65496 17.966 -1.52504 20.916 0.604959 24.516C3.53196 29.72 2.38696 26.641 2.65496 31.27C2.65496 35.281 7.27596 35.761 8.01396 37.17C9.01096 38.442 9.78996 41.922 13.304 41.922C15.899 41.991 16.239 41.775 16.952 42.142C19.794 43.732 20.271 44.346 21.639 44.525C23.826 44.799 24.563 43.856 27.622 42.159C28.294 41.775 28.609 41.994 31.27 41.922C35.315 41.922 35.7 37.39 37.15 36.581C38.408 35.583 41.915 34.774 41.915 31.266C41.984 28.626 41.768 28.311 42.152 27.639L43.969 24.519C44.3646 23.8492 44.5732 23.0855 44.5732 22.3075C44.5732 21.5296 44.3646 20.7659 43.969 20.096" fill="#0CD870"/>
</g>
<defs>
<clipPath id="clip0">
<rect width="45" height="45" fill="white"/>
</clipPath>
</defs>
</svg>
