<svg width="351" height="99" viewBox="0 0 351 99" fill="none" xmlns="http://www.w3.org/2000/svg">
<path fill-rule="evenodd" clip-rule="evenodd" d="M149.82 37.79C140.72 37.79 136.17 42.97 136.17 53.43C136.17 63.78 140.72 69.01 149.82 69.01C158.92 69.01 163.53 63.78 163.53 53.43C163.52 42.97 158.92 37.79 149.82 37.79ZM149.82 44.45C153.69 44.45 155.62 47.35 155.62 53.21C155.56 59.18 153.63 62.25 149.76 62.25C145.89 62.25 143.9 59.29 143.85 53.43C143.84 47.46 145.84 44.45 149.82 44.45Z" fill="#0CD870"/>
<path fill-rule="evenodd" clip-rule="evenodd" d="M200.68 41.9196V37.8196H196.13V34.1596C196.13 32.1696 194.48 30.3496 192.49 30.3496H188.57V63.4196C188.51 66.7796 189.88 68.5396 192.72 68.8196C195.56 69.0996 198.24 69.1096 200.68 68.8796V63.1396H198.35C196.87 63.1396 196.13 62.4596 196.13 61.2096V45.6696H196.93C199.03 45.6696 200.68 44.0796 200.68 41.9196Z" fill="#0CD870"/>
<path fill-rule="evenodd" clip-rule="evenodd" d="M216.2 62.8096C213.81 62.8096 212.56 61.6696 212.39 59.2796C212.39 57.0596 213.92 55.6396 216.94 55.0696C219.16 54.6196 221.21 53.9896 222.97 53.2496V56.0396C222.97 60.3096 220.41 62.8096 216.2 62.8096ZM217.96 44.0396C221.09 44.0396 222.68 44.8896 222.85 46.5996C222.85 48.2496 221.2 49.2196 217.96 49.6196C210.34 50.3596 205.11 52.2896 204.94 59.5196C204.94 66.1696 209.95 69.5296 217.17 68.9596C225.3 68.3896 230.31 64.6896 230.31 56.3896V46.1496C230.14 40.5796 225.93 37.8496 217.63 37.8496C210.69 37.8496 206.77 40.5796 205.86 46.1496H213.42C213.81 44.7296 215.29 44.0396 217.96 44.0396Z" fill="#0CD870"/>
<path fill-rule="evenodd" clip-rule="evenodd" d="M131.91 30.3398V64.8698C131.91 67.0898 130.15 69.0198 127.93 69.0198H123.89V53.2398H108.02V64.8698C108.02 67.0898 106.26 69.0198 104.04 69.0198H100V34.4998C100 32.2798 101.77 30.3398 103.98 30.3398H108.02V46.1298H123.89V34.4898C123.89 32.2798 125.65 30.3398 127.87 30.3398H131.91Z" fill="#0CD870"/>
<path fill-rule="evenodd" clip-rule="evenodd" d="M184.31 37.7305V45.5805C179.22 45.5805 175.76 45.6705 175.76 52.1805V61.0005L175.78 64.8705C175.78 67.0905 174.01 69.0205 171.8 69.0205H167.76V52.2905C167.99 42.5605 173.16 37.7305 183.23 37.7305H184.31V37.7305Z" fill="#0CD870"/>
<path fill-rule="evenodd" clip-rule="evenodd" d="M314.8 76.4305C314.8 78.9305 313.55 80.1905 311.05 80.1905H307.24V51.4105C307.64 42.4205 312.3 37.9805 321.35 37.9805C330.68 37.9805 335.34 43.0405 335.34 53.1705C335.34 63.4105 331.36 68.7005 323.34 68.9805C319.59 68.9805 316.74 67.4405 314.81 64.3205L314.8 76.4305ZM321.32 62.2105C325.42 62.2105 327.52 59.3105 327.69 53.5105C327.69 47.4305 325.53 44.4105 321.21 44.4105C316.89 44.4105 314.84 47.4305 314.9 53.5105C315.12 59.3105 317.22 62.2105 321.32 62.2105Z" fill="#0CD870"/>
<path fill-rule="evenodd" clip-rule="evenodd" d="M282.44 76.4305C282.44 78.9305 281.19 80.1905 278.68 80.1905H274.87V51.4105C275.27 42.4205 279.93 37.9805 288.98 37.9805C298.31 37.9805 302.97 43.0405 302.97 53.1705C302.97 63.4105 298.99 68.7005 290.97 68.9805C287.22 68.9805 284.37 67.4405 282.44 64.3205V76.4305ZM288.96 62.2105C293.06 62.2105 295.16 59.3105 295.33 53.5105C295.33 47.4305 293.17 44.4105 288.85 44.4105C284.53 44.4105 282.48 47.4305 282.54 53.5105C282.76 59.3105 284.87 62.2105 288.96 62.2105Z" fill="#0CD870"/>
<path fill-rule="evenodd" clip-rule="evenodd" d="M258.27 44.0701C261.4 44.0701 262.99 44.9201 263.16 46.6301C263.16 48.2801 261.51 49.2501 258.27 49.6501C250.65 50.3901 245.42 52.3201 245.24 59.5501C245.24 66.2101 250.25 69.5601 257.47 68.9901C265.6 68.4201 270.61 64.7201 270.61 56.4201V46.1701C270.44 40.6001 266.23 37.8701 257.92 37.8701C250.98 37.8701 247.06 40.6001 246.14 46.1701H253.71C254.12 44.7501 255.6 44.0701 258.27 44.0701ZM256.51 62.8401C254.12 62.8401 252.87 61.7001 252.7 59.3101C252.7 57.0901 254.24 55.6701 257.25 55.1001C259.47 54.6401 261.52 54.0201 263.28 53.2801V56.0701C263.28 60.3401 260.72 62.8401 256.51 62.8401Z" fill="#0CD870"/>
<path fill-rule="evenodd" clip-rule="evenodd" d="M237.01 62.4404C235.36 62.4404 234.56 63.1804 234.56 64.6604V68.4104H240.99V62.4404H237.01Z" fill="#0CD870"/>
<g clip-path="url(#clip0)">
<path fill-rule="evenodd" clip-rule="evenodd" d="M25.4672 50.5346L25.4672 78.5365L40.0087 63.995C40.0087 49.7914 40.0087 63.935 40.0087 49.7163V42.7946C40.0087 38.8609 43.1317 35.4376 47.058 35.4451L51.8176 35.4451C51.8176 49.6487 51.8176 35.5051 51.8176 49.7088L51.8176 52.1712L57.1702 46.8185L57.1702 42.3592C57.1702 38.4254 60.2932 35.0022 64.2195 35.0097H68.9791L83.5281 20.4607L54.2875 20.4682C38.2295 20.4757 25.4597 34.4767 25.4672 50.5346Z" fill="#0CD870"/>
<path fill-rule="evenodd" clip-rule="evenodd" d="M83.5281 48.4772L83.5356 20.4678L68.9867 35.0168C68.9867 49.2204 68.9867 35.0768 68.9942 49.288L68.9942 56.2096C68.9942 60.1434 68.266 63.5592 64.3397 63.5667L57.1928 63.5667C57.1928 49.363 57.1928 63.5066 57.1928 49.288L57.1928 46.8256L51.8402 52.1783L51.8402 56.6375C51.8402 60.5713 51.112 63.9871 47.1857 63.9946L40.0388 63.9946L25.4899 78.5436L54.738 78.5436C70.7659 78.5361 83.5356 64.5351 83.5281 48.4772Z" fill="#0CD870"/>
<path opacity="0.3" fill-rule="evenodd" clip-rule="evenodd" d="M83.5281 48.4772L83.5356 20.4678L68.9867 35.0168C68.9867 49.2204 68.9867 35.0768 68.9942 49.288L68.9942 56.2096C68.9942 60.1434 68.266 63.5592 64.3397 63.5667L57.1928 63.5667C57.1928 49.363 57.1928 63.5066 57.1928 49.288L57.1928 46.8256L51.8402 52.1783L51.8402 56.6375C51.8402 60.5713 51.112 63.9871 47.1857 63.9946L40.0388 63.9946L25.4899 78.5436L54.738 78.5436C70.7659 78.5361 83.5356 64.5351 83.5281 48.4772Z" fill="white"/>
</g>
<defs>
<clipPath id="clip0">
<path d="M15 10H94V89H15V10Z" fill="white"/>
</clipPath>
</defs>
</svg>
